<svg width="942" height="388" xmlns="http://www.w3.org/2000/svg" xmlns:xlink="http://www.w3.org/1999/xlink" xml:space="preserve" overflow="hidden"><g transform="translate(-2526 -299)"><path d="M2529.5 381.834C2529.5 348.513 2556.51 321.5 2589.83 321.5L3404.17 321.5C3437.49 321.5 3464.5 348.513 3464.5 381.834L3464.5 623.166C3464.5 656.487 3437.49 683.5 3404.17 683.5L2589.83 683.5C2556.51 683.5 2529.5 656.487 2529.5 623.166Z" stroke="#042433" stroke-width="6.875" stroke-miterlimit="8" fill="#156082" fill-rule="evenodd"/><text fill="#FFFFFF" font-family="Arial Nova,Arial Nova_MSFontService,sans-serif" font-weight="400" font-size="128" transform="matrix(1 0 0 1 2729.24 463)">3.000</text><text fill="#FFFFFF" font-family="Arial Nova Cond,Arial Nova Cond_MSFontService,sans-serif" font-weight="400" font-stretch="condensed" font-size="83" transform="matrix(1 0 0 1 2783.83 609)">Compras</text><g><g><g><path d="M3337.05 565.238C3323.73 574.332 3308.02 579.284 3291.9 579.469 3253.45 579.469 3235 549.056 3229.31 516.219L3303.76 516.219 3303.76 500.406 3227.49 500.406C3227.33 497.771 3227.33 495.135 3227.33 492.5 3227.33 489.865 3227.33 487.229 3227.54 484.594L3303.76 484.594 3303.76 468.781 3229.31 468.781C3235 435.944 3253.45 405.531 3291.9 405.531 3308.02 405.726 3323.73 410.676 3337.05 419.763L3345.72 406.586C3329.83 395.785 3311.11 389.918 3291.9 389.719 3250.34 389.719 3220.59 420.685 3213.31 468.781L3193.07 468.781 3193.07 484.594 3211.78 484.594C3211.65 487.229 3211.57 489.865 3211.57 492.5 3211.57 495.135 3211.57 497.771 3211.78 500.406L3193.07 500.406 3193.07 516.219 3213.31 516.219C3220.59 564.315 3250.21 595.281 3291.9 595.281 3311.11 595.067 3329.84 589.181 3345.72 578.362Z" fill="#FFFFFF"/></g></g></g></g></svg>