<svg width="942" height="386" xmlns="http://www.w3.org/2000/svg" xmlns:xlink="http://www.w3.org/1999/xlink" xml:space="preserve" overflow="hidden"><g transform="translate(-387 -288)"><path d="M390.5 368.834C390.5 335.512 417.513 308.5 450.834 308.5L1265.17 308.5C1298.49 308.5 1325.5 335.512 1325.5 368.834L1325.5 610.166C1325.5 643.488 1298.49 670.5 1265.17 670.5L450.834 670.5C417.513 670.5 390.5 643.488 390.5 610.166Z" stroke="#042433" stroke-width="6.875" stroke-miterlimit="8" fill="#156082" fill-rule="evenodd"/><text fill="#FFFFFF" font-family="Arial Nova,Arial Nova_MSFontService,sans-serif" font-weight="400" font-size="128" transform="matrix(1 0 0 1 590.029 452)">3.000</text><text fill="#FFFFFF" font-family="Arial Nova Cond,Arial Nova Cond_MSFontService,sans-serif" font-weight="400" font-stretch="condensed" font-size="83" transform="matrix(1 0 0 1 644.616 599)">Ventas</text><g><g><g><path d="M1198.05 554.238C1184.73 563.332 1169.02 568.284 1152.9 568.469 1114.45 568.469 1096 538.056 1090.31 505.219L1164.76 505.219 1164.76 489.406 1088.49 489.406C1088.33 486.771 1088.33 484.135 1088.33 481.5 1088.33 478.865 1088.33 476.229 1088.54 473.594L1164.76 473.594 1164.76 457.781 1090.31 457.781C1096 424.944 1114.45 394.531 1152.9 394.531 1169.02 394.726 1184.73 399.676 1198.05 408.763L1206.72 395.586C1190.83 384.785 1172.11 378.918 1152.9 378.719 1111.34 378.719 1081.59 409.685 1074.31 457.781L1054.07 457.781 1054.07 473.594 1072.78 473.594C1072.65 476.229 1072.57 478.865 1072.57 481.5 1072.57 484.135 1072.57 486.771 1072.78 489.406L1054.07 489.406 1054.07 505.219 1074.31 505.219C1081.59 553.315 1111.21 584.281 1152.9 584.281 1172.11 584.067 1190.84 578.181 1206.72 567.362Z" fill="#FFFFFF"/></g></g></g></g></svg>